<mxfile host="Electron" modified="2023-06-04T08:25:19.807Z" agent="Mozilla/5.0 (Windows NT 10.0; Win64; x64) AppleWebKit/537.36 (KHTML, like Gecko) draw.io/21.2.1 Chrome/112.0.5615.87 Electron/24.1.2 Safari/537.36" etag="Bka0TCb2Jphz-zDvDUhy" version="21.2.1" type="device">
  <diagram name="第 1 页" id="Y9NERkkxBm6k1AKjTnyn">
    <mxGraphModel dx="1072" dy="696" grid="1" gridSize="10" guides="1" tooltips="1" connect="1" arrows="1" fold="1" page="1" pageScale="1" pageWidth="827" pageHeight="1169" math="0" shadow="0">
      <root>
        <mxCell id="0" />
        <mxCell id="1" parent="0" />
        <mxCell id="N0opoksDfhinkyYG0gNI-5" style="edgeStyle=orthogonalEdgeStyle;rounded=0;orthogonalLoop=1;jettySize=auto;html=1;exitX=0.5;exitY=1;exitDx=0;exitDy=0;strokeWidth=2;shadow=0;sketch=1;curveFitting=1;jiggle=2;endArrow=none;endFill=0;" edge="1" parent="1" source="N0opoksDfhinkyYG0gNI-1">
          <mxGeometry relative="1" as="geometry">
            <mxPoint x="380" y="210" as="targetPoint" />
          </mxGeometry>
        </mxCell>
        <mxCell id="N0opoksDfhinkyYG0gNI-1" value="&lt;b&gt;&lt;font style=&quot;font-size: 18px;&quot;&gt;JS任务&lt;/font&gt;&lt;/b&gt;" style="rounded=1;whiteSpace=wrap;html=1;fillColor=#f5f5f5;fontColor=#333333;strokeColor=#666666;shadow=1;glass=0;sketch=1;curveFitting=1;jiggle=2;" vertex="1" parent="1">
          <mxGeometry x="320" y="120" width="120" height="60" as="geometry" />
        </mxCell>
        <mxCell id="N0opoksDfhinkyYG0gNI-4" style="edgeStyle=orthogonalEdgeStyle;rounded=0;orthogonalLoop=1;jettySize=auto;html=1;entryX=0.5;entryY=0;entryDx=0;entryDy=0;exitX=0.5;exitY=0;exitDx=0;exitDy=0;strokeWidth=2;sketch=1;curveFitting=1;jiggle=2;startArrow=classic;startFill=1;" edge="1" parent="1" source="N0opoksDfhinkyYG0gNI-2" target="N0opoksDfhinkyYG0gNI-3">
          <mxGeometry relative="1" as="geometry">
            <Array as="points">
              <mxPoint x="250" y="210" />
              <mxPoint x="510" y="210" />
            </Array>
          </mxGeometry>
        </mxCell>
        <mxCell id="N0opoksDfhinkyYG0gNI-2" value="&lt;b&gt;&lt;font style=&quot;font-size: 18px;&quot;&gt;同步任务&lt;br&gt;（非耗时任务）&lt;br&gt;&lt;/font&gt;&lt;/b&gt;" style="rounded=1;whiteSpace=wrap;html=1;fillColor=#f5f5f5;fontColor=#333333;strokeColor=#666666;shadow=1;glass=0;sketch=1;curveFitting=1;jiggle=2;" vertex="1" parent="1">
          <mxGeometry x="180" y="240" width="140" height="60" as="geometry" />
        </mxCell>
        <mxCell id="N0opoksDfhinkyYG0gNI-9" style="edgeStyle=orthogonalEdgeStyle;rounded=0;orthogonalLoop=1;jettySize=auto;html=1;strokeWidth=2;endArrow=none;endFill=0;sketch=1;curveFitting=1;jiggle=2;" edge="1" parent="1" source="N0opoksDfhinkyYG0gNI-3">
          <mxGeometry relative="1" as="geometry">
            <mxPoint x="510" y="340" as="targetPoint" />
          </mxGeometry>
        </mxCell>
        <mxCell id="N0opoksDfhinkyYG0gNI-3" value="&lt;b&gt;&lt;font style=&quot;font-size: 18px;&quot;&gt;异步任务&lt;br&gt;（耗时任务）&lt;br&gt;&lt;/font&gt;&lt;/b&gt;" style="rounded=1;whiteSpace=wrap;html=1;fillColor=#FFD966;strokeColor=#FF8000;shadow=1;glass=0;sketch=1;curveFitting=1;jiggle=2;" vertex="1" parent="1">
          <mxGeometry x="440" y="240" width="140" height="60" as="geometry" />
        </mxCell>
        <mxCell id="N0opoksDfhinkyYG0gNI-8" style="edgeStyle=orthogonalEdgeStyle;rounded=0;orthogonalLoop=1;jettySize=auto;html=1;entryX=0.601;entryY=-0.014;entryDx=0;entryDy=0;entryPerimeter=0;exitX=0.5;exitY=0;exitDx=0;exitDy=0;startArrow=classic;startFill=1;strokeWidth=2;sketch=1;curveFitting=1;jiggle=2;" edge="1" parent="1" source="N0opoksDfhinkyYG0gNI-6" target="N0opoksDfhinkyYG0gNI-7">
          <mxGeometry relative="1" as="geometry">
            <Array as="points">
              <mxPoint x="255" y="340" />
              <mxPoint x="753" y="340" />
            </Array>
          </mxGeometry>
        </mxCell>
        <mxCell id="N0opoksDfhinkyYG0gNI-6" value="&lt;b&gt;&lt;font style=&quot;font-size: 18px;&quot;&gt;宏任务&lt;br&gt;异步Ajax、setTimeout、setInterval、文件操作等&lt;br&gt;&lt;/font&gt;&lt;/b&gt;" style="rounded=1;whiteSpace=wrap;html=1;fillColor=#dae8fc;strokeColor=#6c8ebf;shadow=1;glass=0;sketch=1;curveFitting=1;jiggle=2;" vertex="1" parent="1">
          <mxGeometry x="45" y="380" width="420" height="60" as="geometry" />
        </mxCell>
        <mxCell id="N0opoksDfhinkyYG0gNI-7" value="&lt;b&gt;&lt;font style=&quot;font-size: 18px;&quot;&gt;微任务&lt;br&gt;Promise.then、Promise.catch、Promise.finally等&lt;br&gt;&lt;/font&gt;&lt;/b&gt;" style="rounded=1;whiteSpace=wrap;html=1;fillColor=#dae8fc;strokeColor=#6c8ebf;shadow=1;glass=0;sketch=1;curveFitting=1;jiggle=2;" vertex="1" parent="1">
          <mxGeometry x="495" y="380" width="430" height="60" as="geometry" />
        </mxCell>
      </root>
    </mxGraphModel>
  </diagram>
</mxfile>
